<?xml version="1.0" encoding="utf-8"?>
<!-- Generator: Adobe Illustrator 27.5.0, SVG Export Plug-In . SVG Version: 6.00 Build 0)  -->
<svg version="1.1" id="Layer_1" xmlns="http://www.w3.org/2000/svg" xmlns:xlink="http://www.w3.org/1999/xlink" x="0px" y="0px"
	 viewBox="0 0 4000 4000" style="enable-background:new 0 0 4000 4000;" xml:space="preserve">
<g>
	<g>
		<rect style="fill:#FFFFFF;" width="4000" height="4000"/>
	</g>
	<g>
		<g>
			<path style="fill:#371A45;" d="M2653.095,3129.175c383.111-231.907,640.425-661.525,640.425-1153.272
				C3293.52,1238.104,2714.392,640,2000,640s-1293.52,598.104-1293.52,1335.903c0,491.747,257.314,921.365,640.427,1153.272
				c197.475-3.671,419.023-5.727,653.093-5.727S2455.62,3125.504,2653.095,3129.175z"/>
		</g>
		<g>
			<path style="fill:#FFFFFF;" d="M2792.404,2778.022c-28.22-74.568-68.458-145.613-119.655-211.272v-83.259
				c0-41.626-17.142-81.252-48.501-112.639l1.041-8.806c3.909-33.071-6.334-65.234-28.843-90.564
				c-23.685-26.648-58.235-41.931-94.791-41.931h-3.625c3.066-3.931,6.08-7.893,9.041-11.88c3.754-4.219,6.843-7.991,9.43-11.504
				c38.655-52.498,67.822-110.046,86.808-171.235c37.157-5.342,71.042-23.252,96.58-51.313
				c29.149-32.031,44.082-73.496,42.046-116.76l-5.62-119.338c-2.039-43.267-20.803-83.147-52.837-112.292
				c-28.417-25.862-64.805-40.688-103.052-42.109c-29.59-68.999-71.133-131.809-123.617-186.868
				c-116.395-122.107-273.375-191.575-442.023-195.61c-5.293-0.129-10.665-0.198-15.952-0.198
				c-162.461,0-316.92,61.948-434.926,174.436c-76.705,73.12-133.821,164.124-165.76,263.887
				c-38.031,4.927-72.734,22.969-98.835,51.65c-29.149,32.031-44.082,73.496-42.046,116.76l5.62,119.336
				c3.995,84.824,72.223,151.658,156.429,154.434c21.34,49.583,48.835,96.021,82.041,138.606h-3.011
				c-36.556,0-71.106,15.283-94.79,41.929c-21.416,24.099-31.729,54.385-29.314,85.754c-11.89,9.604-22.39,20.461-31.312,32.388
				c-21.006,27.932-32.125,60.408-32.125,93.87v106.313c-43.024,59.182-77.427,122.471-102.308,188.218
				c-39.005,103.064-40.739,183.989-5.153,240.552h-11.915c49.032,40.603,100.978,77.61,155.48,110.601
				c197.476-3.672,419.023-5.728,653.093-5.728s455.62,2.056,653.096,5.728c54.502-32.991,106.448-69.998,155.479-110.601h-11.018
				C2833.142,2962.012,2831.409,2881.086,2792.404,2778.022z"/>
		</g>
		<g>
			<path style="fill:#FFFFFF;" d="M2782.621,1235.435c0.562,71.912,27.416,140.92,75.618,194.314
				c2.605,2.886,2.954,7.039,0.889,10.576l-42.546,72.869c-11.449,19.609-8.231,44.517,7.825,60.569
				c9.445,9.443,22.003,14.644,35.364,14.644c8.842,0,17.554-2.358,25.198-6.819l109.53-63.948c1.207-0.706,2.548-1.079,3.873-1.079
				c0.59,0,1.168,0.076,1.721,0.225c23.937,6.426,48.717,9.795,73.655,10.012l2.45,0.01c46.984,0,91.519-11.318,131.091-31.262
				c-69.766-186.899-178.998-353.533-317.222-488.953C2823.979,1061.128,2781.908,1143.772,2782.621,1235.435z"/>
		</g>
		<g>
			<g>
				<path style="fill:#FFFFFF;" d="M2638.203,2483.49v432.352c0,20.137-5.188,39.33-14.563,56.591
					c-25.61,47.489-82.355,80.689-147.86,80.689h-968.01c-55.07,0-103.948-23.438-133.353-59.137
					c-18.301-22.212-29.07-49.14-29.07-78.142V2483.49c0-26.833,9.262-51.922,25.22-73.144
					c28.79-38.482,79.621-64.136,137.202-64.136h968.01c7.812,0,15.455,0.472,22.988,1.415
					C2577.329,2357.104,2638.203,2414.591,2638.203,2483.49z"/>
				<path style="fill:#371A45;" d="M2475.779,3067.669h-968.008c-57.295,0-111.345-24.087-144.58-64.438
					c-21.189-25.713-32.388-55.933-32.388-87.388V2483.49c0-29.087,9.729-57.402,28.14-81.885
					c32.754-43.784,88.401-69.941,148.828-69.941h968.008c8.345,0,16.687,0.513,24.795,1.528
					c86.726,10.464,152.175,75.078,152.175,150.298v432.354c0,22.207-5.493,43.584-16.326,63.535
					C2607.505,3032.996,2544.439,3067.669,2475.779,3067.669z M1507.771,2360.755c-51.306,0-98.242,21.797-125.554,58.306
					c-14.609,19.429-22.322,41.699-22.322,64.429v432.354c0,24.624,8.904,48.447,25.75,68.887
					c27.773,33.721,73.428,53.848,122.126,53.848h968.008c58.113,0,111.125-28.672,135.059-73.047
					c8.513-15.679,12.82-32.383,12.82-49.688V2483.49c0-60.513-54.441-112.715-126.633-121.421
					c-6.975-0.874-14.102-1.313-21.245-1.313H1507.771z"/>
			</g>
			<g>
				<path style="fill:#FFFFFF;" d="M2004.096,2226.022c330.732,54.685,639.198,255.598,755.996,564.229
					c94.395,249.429-77.05,262.871-77.05,262.871h-685.736h6.287h-685.736c0,0-171.444-13.441-77.05-262.871
					c116.799-308.63,425.265-509.544,755.996-564.229"/>
			</g>
			<g style="opacity:0.35;">
				<path style="fill:#371A45;" d="M2683.025,3053.125H1317.841c0,0-119.939-9.419-103.901-158.451
					c0.226,1.799,0.477,3.568,0.752,5.308c11.54,72.964,110.868,87.232,144.035,21.226l15.001-29.854h1252.425l16.073,31.433
					c33.506,65.527,131.802,50.92,143.802-21.691c0.347-2.097,0.658-4.238,0.933-6.422
					C2803,3043.706,2683.025,3053.125,2683.025,3053.125z"/>
			</g>
			<g>
				<path style="fill:#FFFFFF;" d="M1261.983,2903.77c0,0,65.306-196.931,241.183-197.494
					c162.278-0.519,224.241,80.427,186.223,191.582c-18.92,55.317-221.061,107.607-315.661-6.504"/>
			</g>
			<g style="opacity:0.35;">
				<path style="fill:#371A45;" d="M1689.403,2897.874c-18.947,55.315-221.075,107.574-315.666-6.509l0,0
					c0-19.978,22.143-31.683,38.879-20.773c102.289,66.677,260.151,20.464,276.787-28.104c3.637-10.583,6.328-20.911,8.146-30.912
					C1702.932,2837.104,1700.204,2866.271,1689.403,2897.874z"/>
			</g>
			<g>
				<path style="fill:#371A45;" d="M1257.38,2902.244c0.347-23.135,8.251-43.901,18.502-63.291
					c10.059-19.551,23.208-37.473,37.876-54.006c14.821-16.396,30.585-32.173,48.563-45.522
					c17.917-13.362,37.677-24.561,58.76-32.627c21.055-8.135,43.408-12.939,65.844-14.453l16.815-0.608
					c5.448,0.09,10.89,0.085,16.343,0.259c10.912,0.432,21.842,1.077,32.776,2.388c21.847,2.515,43.779,6.899,65.039,14.768
					c21.199,7.734,41.876,19.255,58.931,35.82c17.155,16.399,29.47,38.508,34.496,61.724c5.15,23.237,4.076,46.99-0.774,69.087
					c-1.067,5.593-2.665,10.991-4.121,16.438l-2.539,8.025l-0.637,2.004c-0.22,0.681-0.688,1.699-1.034,2.529l-2.352,5.195
					c-7.314,12.581-17.085,20.518-26.825,27.256c-19.736,13.196-40.948,20.957-62.458,26.826
					c-43.086,11.035-88.333,13.123-132.312,3.901c-5.487-1.172-10.956-2.437-16.35-4.084c-5.45-1.404-10.753-3.381-16.095-5.217
					c-5.343-1.829-10.543-4.138-15.87-6.116c-5.134-2.454-10.498-4.49-15.468-7.351c-5-2.793-10.011-5.613-14.484-9.26
					c-4.686-3.32-8.922-7.249-12.908-11.392c-7.935-8.298-14.163-18.398-17.102-30.088c-0.72-2.869,1.019-5.779,3.888-6.499
					c1.041-0.261,2.089-0.2,3.033,0.125l0.544,0.186c5.686,1.931,10.118,4.644,14.751,7.012c4.698,2.285,8.651,5.166,12.988,7.551
					c2.103,1.265,4.12,2.61,6.107,3.982c2.061,1.277,4.209,2.429,6.213,3.765c2.094,1.208,3.992,2.69,6.113,3.86
					c2.104,1.187,4.153,2.463,6.194,3.762c16.216,10.728,35.186,17.148,54.495,21.309c38.783,8.203,80.198,6.365,118.843-3.577
					c19.169-5.166,38.121-12.368,53.551-22.776c7.617-5.093,14.291-11.318,17.617-17.119c0.259-0.698,0.547-1.375,0.868-2.041
					c0.162-0.388,0.325-0.54,0.511-1.116l0.558-1.772l2.245-7.08c1.254-4.753,2.682-9.495,3.577-14.287
					c4.218-19.087,4.851-38.567,0.852-56.633c-3.971-18.074-13.073-34.47-26.459-47.327c-13.307-12.927-30.251-22.634-48.668-29.329
					c-18.397-6.829-38.181-10.854-58.271-13.157c-10.043-1.211-20.219-1.807-30.411-2.214l-15.339-0.242l-14.85,0.537
					c-19.72,1.333-39.139,5.515-57.504,12.615c-36.73,14.148-69.49,38.979-94.734,70.381c-6.255,7.896-12.244,16.011-17.882,24.399
					c-5.758,8.298-11.313,16.763-16.788,25.322c-10.819,17.205-21.527,34.57-35.452,51.211l-0.236,0.281
					c-1.799,2.151-5.001,2.437-7.151,0.637C1257.986,2905.198,1257.367,2903.711,1257.38,2902.244z"/>
			</g>
			<g>
				<path style="fill:#FFFFFF;" d="M2737.899,2903.77c0,0-65.306-196.931-241.183-197.494
					c-162.278-0.519-224.242,80.427-186.224,191.582c18.92,55.317,221.061,107.607,315.661-6.504"/>
			</g>
			<g>
				<path style="fill:#FFFFFF;" d="M2737.899,2903.77c0,0-65.306-196.931-241.183-197.494
					c-162.278-0.519-224.242,80.427-186.224,191.582c18.92,55.317,221.061,107.607,315.661-6.504L2737.899,2903.77z"/>
			</g>
			<g style="opacity:0.35;">
				<path style="fill:#371A45;" d="M2626.147,2891.364c-94.591,114.083-296.719,61.824-315.666,6.509
					c-10.801-31.603-13.529-60.769-8.146-86.299c1.818,10.001,4.51,20.329,8.146,30.912
					c16.636,48.568,174.498,94.782,276.787,28.104C2604.004,2859.681,2626.147,2871.386,2626.147,2891.364L2626.147,2891.364z"/>
			</g>
			<g>
				<path style="fill:#371A45;" d="M2733.297,2905.295c-13.925-16.641-24.634-34.006-35.452-51.211
					c-5.476-8.56-11.031-17.024-16.79-25.322c-5.638-8.389-11.626-16.504-17.882-24.399c-25.243-31.401-58.004-56.233-94.734-70.381
					c-18.364-7.1-37.783-11.282-57.502-12.615l-14.851-0.537l-15.339,0.242c-10.193,0.408-20.367,1.003-30.41,2.214
					c-20.092,2.302-39.875,6.328-58.273,13.157c-18.416,6.694-35.361,16.401-48.668,29.329
					c-13.385,12.856-22.487,29.253-26.459,47.327c-3.999,18.066-3.365,37.546,0.852,56.633c0.896,4.792,2.323,9.534,3.578,14.287
					l2.244,7.08l0.559,1.772c0.187,0.576,0.349,0.728,0.511,1.116c0.321,0.667,0.608,1.343,0.868,2.041
					c3.326,5.801,10,12.026,17.616,17.119c15.431,10.408,34.384,17.61,53.551,22.776c38.645,9.941,80.06,11.78,118.844,3.577
					c19.309-4.16,38.278-10.581,54.495-21.309c2.041-1.299,4.088-2.576,6.193-3.762c2.122-1.169,4.02-2.651,6.115-3.86
					c2.004-1.335,4.152-2.488,6.212-3.765c1.989-1.372,4.005-2.717,6.108-3.982c4.336-2.385,8.29-5.266,12.988-7.551
					c4.633-2.368,9.064-5.081,14.75-7.012l0.549-0.188c2.8-0.952,5.842,0.547,6.793,3.347c0.345,1.018,0.369,2.061,0.123,3.03
					c-2.938,11.689-9.167,21.79-17.101,30.088c-3.987,4.143-8.221,8.071-12.908,11.392c-4.474,3.647-9.485,6.467-14.485,9.26
					c-4.969,2.861-10.333,4.897-15.468,7.351c-5.327,1.978-10.526,4.287-15.87,6.116c-5.342,1.836-10.643,3.813-16.094,5.217
					c-5.396,1.648-10.864,2.913-16.351,4.084c-43.979,9.221-89.226,7.134-132.311-3.901c-21.511-5.869-42.722-13.63-62.458-26.826
					c-9.741-6.738-19.512-14.675-26.825-27.256l-2.354-5.195c-0.345-0.83-0.814-1.848-1.034-2.529l-0.637-2.004l-2.538-8.025
					c-1.456-5.447-3.055-10.845-4.122-16.438c-4.849-22.097-5.924-45.85-0.774-69.087c5.027-23.215,17.343-45.325,34.496-61.724
					c17.054-16.565,37.732-28.086,58.932-35.82c21.259-7.869,43.191-12.253,65.038-14.768c10.934-1.311,21.864-1.956,32.776-2.388
					c5.454-0.173,10.896-0.168,16.344-0.259l16.814,0.608c22.437,1.514,44.789,6.318,65.845,14.453
					c21.083,8.066,40.842,19.265,58.759,32.627c17.979,13.35,33.743,29.126,48.564,45.522
					c14.668,16.533,27.817,34.456,37.875,54.006c10.253,19.39,18.157,40.156,18.502,63.291c0.043,2.803-2.196,5.11-5,5.151
					c-1.582,0.024-3.005-0.679-3.954-1.799L2733.297,2905.295z"/>
			</g>
			<g>
				<path style="fill:#371A45;" d="M2683.611,3067.669l-1366.892-0.044c-2.517-0.195-62.034-5.449-96.179-59.272
					c-32.349-50.981-30.107-126.094,6.66-223.247c111.204-293.848,405.188-513.574,767.229-573.438
					c2.07-0.342,4.109-0.229,6.021,0.266c1.909-0.496,3.948-0.608,6.018-0.266c362.041,59.863,656.028,279.59,767.232,573.438
					c36.768,97.153,39.006,172.266,6.66,223.252c-34.146,53.818-93.662,59.072-96.179,59.268L2683.611,3067.669z M2003.592,3038.577
					h678.77c5.2-0.552,48.582-6.284,73.647-46.147c26.563-42.251,23.269-110.381-9.521-197.031
					c-107.544-284.175-392.922-496.851-744.766-555.024c-0.432-0.073-0.857-0.161-1.275-0.269c-0.415,0.105-0.84,0.195-1.272,0.269
					c-351.843,58.174-637.219,270.85-744.763,555.024c-32.793,86.65-36.084,154.78-9.521,197.026
					c25.002,39.771,68.23,45.571,73.66,46.152H2003.592z"/>
			</g>
			<g>
				<g>
					<path style="fill:#FFFFFF;" d="M2585.969,2001.941L2585.969,2001.941c-6.71,0.316-12.406-4.867-12.721-11.577l-16.481-349.953
						c-0.316-6.71,4.867-12.405,11.577-12.721h0c70.393-3.315,130.146,51.062,133.461,121.455l5.62,119.335
						C2710.74,1938.873,2656.362,1998.626,2585.969,2001.941z"/>
					<path style="fill:#371A45;" d="M2585.391,2004.569c-7.834,0-14.382-6.179-14.753-14.082l-16.482-349.953
						c-0.383-8.137,5.928-15.071,14.063-15.454c71.763-3.386,132.822,52.224,136.196,123.945l5.62,119.333
						c1.636,34.741-10.354,68.042-33.765,93.767c-23.408,25.723-55.435,40.791-90.178,42.427l0,0
						C2585.857,2004.564,2585.623,2004.569,2585.391,2004.569z M2574.412,1630.159c-1.973,0-3.955,0.046-5.947,0.139
						c-5.259,0.249-9.336,4.731-9.089,9.99l16.482,349.954c0.247,5.261,4.734,9.302,9.99,9.089l0,0
						c68.84-3.242,122.209-61.887,118.967-130.73l-5.62-119.333C2696.045,1682.42,2640.652,1630.159,2574.412,1630.159z"/>
				</g>
				<g style="opacity:0.35;">
					<path style="fill:#371A45;" d="M2704.789,1812.522l2.648,55.969c3.305,70.369-51.067,130.134-121.474,133.476
						c-6.708,0.323-12.401-4.896-12.725-11.603l-4.412-93.029c2.083,4.152,6.467,6.881,11.394,6.687l8.298-0.414
						C2644.146,1901,2689.801,1863.11,2704.789,1812.522z"/>
				</g>
				<g>
					<path style="fill:#371A45;" d="M2585.384,2016.502c-14.158,0-25.996-11.17-26.667-25.457l-16.482-349.951
						c-0.691-14.709,10.713-27.241,25.42-27.937c78.242-3.689,144.993,57.009,148.682,135.305l5.62,119.333
						c3.687,78.293-57.009,144.988-135.303,148.677h-0.002C2586.229,2016.492,2585.804,2016.502,2585.384,2016.502z
						 M2571.409,1642.132l16.255,345.142c61.116-4.15,108.125-56.636,105.229-118.11l-5.62-119.333
						C2684.38,1688.355,2632.554,1640.477,2571.409,1642.132z"/>
				</g>
				<g>
					<path style="fill:#FFFFFF;" d="M1413.231,1682.091L1413.231,1682.091c6.71-0.316,12.406,4.867,12.722,11.577l16.481,349.953
						c0.316,6.71-4.867,12.405-11.577,12.721l0,0c-70.393,3.315-130.146-51.062-133.461-121.455l-5.62-119.335
						C1288.46,1745.159,1342.838,1685.406,1413.231,1682.091z"/>
					<path style="fill:#371A45;" d="M1424.786,2059.1c-69.016,0-126.721-54.443-130-124.092l-5.62-119.333
						c-1.636-34.741,10.354-68.042,33.765-93.767c23.408-25.723,55.435-40.791,90.178-42.427l0,0
						c8.174-0.393,15.068,5.93,15.454,14.063l16.482,349.956c0.383,8.137-5.928,15.071-14.063,15.454
						C1428.909,2059.051,1426.839,2059.1,1424.786,2059.1z M1413.353,1684.7c-68.84,3.242-122.21,61.887-118.967,130.73
						l5.62,119.333c3.245,68.838,61.858,122.163,130.73,118.97c5.259-0.249,9.336-4.731,9.089-9.99l-16.482-349.954
						C1423.091,1688.531,1418.509,1684.403,1413.353,1684.7L1413.353,1684.7z"/>
				</g>
				<g style="opacity:0.35;">
					<path style="fill:#371A45;" d="M1437.889,1946.536l4.561,97.084c0.323,6.707-4.896,12.401-11.603,12.725
						c-36.947,1.724-70.999-12.422-95.471-36.472c-22.1-21.718-36.387-51.543-37.967-84.965l-2.371-50.285
						c22.059,43.176,68.028,71.814,119.639,69.392l12.771-0.604C1432.109,1953.183,1435.952,1950.419,1437.889,1946.536z"/>
				</g>
				<g>
					<path style="fill:#371A45;" d="M1424.781,2071.033c-75.344,0-138.335-59.431-141.916-135.464l-5.62-119.333
						c-3.687-78.293,57.009-144.988,135.303-148.677h0.003c14.724-0.64,27.239,10.713,27.935,25.42l16.482,349.958
						c0.691,14.709-10.713,27.241-25.42,27.937C1429.285,2070.98,1427.022,2071.033,1424.781,2071.033z M1411.536,1696.759
						c-61.116,4.15-108.125,56.636-105.229,118.11l5.62,119.333c2.893,61.475,54.656,109.299,115.864,107.698L1411.536,1696.759z"/>
				</g>
				<g>
					<circle style="fill:#FFFFFF;" cx="1999.673" cy="1842.013" r="597.009"/>
					<path style="fill:#371A45;" d="M1999.878,2441.639c-4.856,0-9.67-0.059-14.553-0.176
						c-330.537-7.91-593.013-283.262-585.103-613.799c3.831-160.117,69.788-309.16,185.718-419.673
						c115.933-110.51,267.954-169.209,428.079-165.43c160.12,3.831,309.163,69.788,419.675,185.718
						c110.51,115.933,169.263,267.959,165.43,428.081l0,0C2591.329,2182.017,2323.882,2441.639,1999.878,2441.639z M1999.3,1247.613
						c-153.357,0-298.352,57.971-409.753,164.163c-114.919,109.548-180.3,257.292-184.099,416.016
						c-7.842,327.654,252.349,600.605,580.005,608.447c327.573,7.852,600.601-252.346,608.447-580.005l2.612,0.063l-2.612-0.063
						c3.799-158.723-54.441-309.426-163.989-424.346c-109.548-114.922-257.292-180.303-416.018-184.102
						C2009.029,1247.669,2004.148,1247.613,1999.3,1247.613z"/>
				</g>
				<g style="opacity:0.35;">
					<path style="fill:#371A45;" d="M2592.768,1773.541c3.155,27.078,4.419,54.702,3.754,82.761
						c-7.934,329.614-281.527,590.426-611.142,582.568c-329.614-7.932-590.425-281.526-582.569-611.141
						c0.221-9.479,0.668-18.961,1.346-28.292c33.284,291.498,277.222,521.151,578.815,528.379
						C2303.107,2335.454,2570.351,2089.673,2592.768,1773.541z"/>
				</g>
				<g>
					<path style="fill:#371A45;" d="M1999.883,2453.573c-4.956,0-9.863-0.059-14.844-0.181
						c-337.114-8.066-604.814-288.896-596.748-626.013c8.069-337.114,288.704-604.783,626.013-596.748
						c163.306,3.909,315.315,71.177,428.027,189.417c112.71,118.237,172.629,273.291,168.723,436.599l0,0
						C2603.104,2188.785,2330.333,2453.573,1999.883,2453.573z M1999.307,1259.547c-150.278,0-292.363,56.807-401.526,160.867
						c-112.612,107.349-176.682,252.126-180.403,407.664c-7.683,321.077,247.28,588.547,568.359,596.233
						c320.996,7.715,588.542-247.28,596.23-568.362c7.686-321.079-247.28-588.547-568.362-596.23
						C2008.841,1259.603,2004.058,1259.547,1999.307,1259.547z M2596.512,1856.297h0.051H2596.512z"/>
				</g>
				<g>
					<path style="fill:#371A45;" d="M2594.235,1871.58c-1.031,116.821-39.909,224.944-105.556,314.108
						c-49.216,66.846-250.13,182.823-496.961,182.864c-228.866,0.038-436.006-123.814-484.035-191.518
						c-64.064-90.308-101.028-199.1-99.998-315.921c2.727-309.143,269.462-434.958,597.133-432.067
						C2332.489,1431.936,2596.963,1562.437,2594.235,1871.58z"/>
				</g>
				<g>
					<path style="fill:#371A45;" d="M1991.622,2383.099c-236.77,0-445.474-126.702-495.803-197.649
						c-68.196-96.133-103.704-208.33-102.678-324.468c1.335-151.301,63.027-267.422,183.367-345.137
						c105.061-67.847,253.218-102.981,428.44-101.345c175.227,1.545,322.737,39.199,426.585,108.889
						c118.95,79.824,178.586,197.017,177.251,348.32l0,0c-1.025,116.133-38.506,227.688-108.389,322.603
						c-48.45,65.806-247.395,188.743-508.672,188.787C1991.692,2383.099,1991.651,2383.099,1991.622,2383.099z M1993.826,1443.543
						c-164.756,0-303.415,33.376-401.536,96.743c-111.599,72.07-168.816,180.054-170.059,320.955
						c-0.969,109.976,32.681,216.267,97.317,307.378c45.898,64.702,248.489,185.388,472.075,185.388c0.042,0,0.051,0,0.093,0
						c247.817-0.044,441.257-117.195,485.249-176.946c66.23-89.956,101.753-195.632,102.725-305.61
						c3.367-381.56-400.994-426.323-575.002-427.859C2001.058,1443.56,1997.434,1443.543,1993.826,1443.543z M2594.236,1871.58
						h0.049H2594.236z"/>
				</g>
				<g style="opacity:0.7;">
					
						<ellipse transform="matrix(0.187 -0.9824 0.9824 0.187 157.0759 3845.5564)" style="fill:#FFFFFF;" cx="2401.788" cy="1827.883" rx="105.652" ry="76.557"/>
				</g>
				<g style="opacity:0.7;">
					
						<ellipse transform="matrix(0.3209 -0.9471 0.9471 0.3209 -362.5441 3567.0332)" style="fill:#FFFFFF;" cx="2306.162" cy="2036.333" rx="48.493" ry="41.615"/>
				</g>
				<g style="opacity:0.35;">
					<path style="fill:#111A28;" d="M2481.391,1582.159c71.916,69.847,113.916,165.24,112.837,289.403
						c-1.03,116.845-39.931,224.96-105.532,314.126c-49.231,66.846-250.164,182.816-496.99,182.882
						c-87.153,0.039-171.128-17.919-244.405-43.931c303.407-6.548,548.16-148.906,609.193-231.815
						c83.325-113.165,132.662-250.41,133.948-398.646C2490.816,1654.56,2487.649,1617.247,2481.391,1582.159z"/>
				</g>
				<g>
					<path style="fill:#371A45;" d="M2545.547,1614.566c-3.235,0-6.489-1.081-9.189-3.306l-1.531-1.26l-1.221-1.694
						c-99.446-142.07-293.242-224.761-531.702-226.87c-239.595-2.231-434.849,79.775-535.168,224.658l-0.732,0.967
						c-5.105,6.206-14.309,7.134-20.51,2.021c-6.023-4.961-7.065-13.713-2.439-19.895
						c105.959-152.725,309.902-239.087,559.106-236.843c247.815,2.192,450.107,89.297,555.073,238.984
						c3.882,5.247,3.889,12.661-0.442,17.917C2553.909,1612.747,2549.744,1614.566,2545.547,1614.566z"/>
				</g>
				<g style="opacity:0.7;">
					<path style="fill:#FFFFFF;" d="M1539.301,2046.196c0,0-93.057-305.816,72.375-425.896
						c165.431-120.08,401.892-117.504,396.229-102.388c0,0-262.343,61.066-366.598,267.12
						C1560.913,1943.923,1539.301,2046.196,1539.301,2046.196z"/>
				</g>
			</g>
			<g>
				<path style="fill:#371A45;" d="M830.375,3166.133c48.734-7.715,97.468-9.563,146.202-10.51
					c24.368-0.522,48.735-0.625,73.102-0.491c24.368-0.039,48.734,0.315,73.102,0.569c48.734,0.454,97.469,0.569,146.204,0.496
					h146.202H2000h584.813h292.406l73.102-0.029l36.55-0.356l36.552-0.618c48.734-0.173,97.468,0.273,146.202,10.94
					c2.744,0.601,4.481,3.311,3.881,6.055c-0.438,2.002-2.003,3.467-3.881,3.882c-48.734,10.667-97.468,11.113-146.202,10.938
					l-36.552-0.618l-36.55-0.356l-73.102-0.027h-292.406H2000h-584.813h-146.202c-48.734-0.073-97.469,0.042-146.204,0.496
					c-24.368,0.251-48.734,0.608-73.102,0.569c-24.366,0.134-48.734,0.032-73.102-0.491c-48.734-0.947-97.468-2.795-146.202-10.51
					c-2.744-0.435-4.617-3.01-4.182-5.754C826.542,3168.108,828.282,3166.467,830.375,3166.133z"/>
			</g>
			<g>
				<path style="fill:#F92323;" d="M2942.045,3165.246h-1884.09c-30.467,0-55.166-24.698-55.166-55.166v-1.793
					c0-30.467,24.699-55.166,55.166-55.166h1884.09c30.467,0,55.166,24.698,55.166,55.166v1.793
					C2997.211,3140.547,2972.512,3165.246,2942.045,3165.246z"/>
				<path style="fill:#371A45;" d="M2942.044,3167.347H1057.955c-31.575,0-57.263-25.688-57.263-57.266v-1.797
					c0-31.572,25.688-57.261,57.263-57.261h1884.089c31.575,0,57.263,25.688,57.263,57.261v1.797
					C2999.307,3141.658,2973.619,3167.347,2942.044,3167.347z M1057.955,3055.223c-29.263,0-53.069,23.804-53.069,53.062v1.797
					c0,29.263,23.806,53.066,53.069,53.066h1884.089c29.263,0,53.069-23.804,53.069-53.066v-1.797
					c0-29.258-23.806-53.062-53.069-53.062H1057.955z"/>
			</g>
			<g>
				<path style="fill:#371A45;" d="M2942.044,3179.793H1057.955c-38.44,0-69.712-31.274-69.712-69.712v-1.797
					c0-38.438,31.272-69.707,69.712-69.707h1884.089c38.44,0,69.712,31.27,69.712,69.707v1.797
					C3011.756,3148.519,2980.484,3179.793,2942.044,3179.793z M1057.955,3067.669c-22.397,0-40.62,18.223-40.62,40.615v1.797
					c0,22.397,18.223,40.62,40.62,40.62h1884.089c22.397,0,40.62-18.223,40.62-40.62v-1.797c0-22.393-18.223-40.615-40.62-40.615
					H1057.955z"/>
			</g>
			<g style="opacity:0.5;">
				<path style="fill:#FFFFFF;" d="M2942.927,3069.731H1368.273h-131.836h-179.364c-21.063,0-38.2,17.698-38.2,39.451
					c0,15.944,9.223,29.677,22.433,35.892c-4.003-6.237-6.349-13.703-6.349-21.73c0-21.753,17.136-39.451,38.2-39.451h161.548
					c8.362,9.583,35.449,16.611,67.65,16.611c32.201,0,59.288-7.029,67.65-16.611h1589.007c5.625,0,10.953,1.295,15.766,3.56
					C2967.933,3076.787,2956.218,3069.731,2942.927,3069.731z"/>
			</g>
			<g>
				<path style="fill:#C5D3E2;" d="M2533.054,3048.636h-1066.78c-48.413,0-87.659-39.246-87.659-87.659v-4.474h1242.098v4.474
					C2620.714,3009.39,2581.467,3048.636,2533.054,3048.636z"/>
			</g>
			<g style="opacity:0.35;">
				<path style="fill:#371A45;" d="M2620.728,2956.498v4.473c0,48.404-39.276,87.681-87.681,87.681H1466.291
					c-48.441,0-87.681-39.277-87.681-87.681v-4.473h3.891c11.019,35.785,44.368,61.824,83.79,61.824h1066.756
					c39.385,0,72.77-26.039,83.79-61.824H2620.728z"/>
			</g>
			<g>
				<path style="fill:#371A45;" d="M2533.055,3063.182h-1066.78c-56.357,0-102.205-45.85-102.205-102.207v-19.019h1271.189v19.019
					C2635.259,3017.332,2589.412,3063.182,2533.055,3063.182z M1393.855,2971.048c4.922,35.566,35.523,63.042,72.42,63.042h1066.78
					c36.897,0,67.498-27.476,72.419-63.042H1393.855z"/>
			</g>
			<g style="opacity:0.6;">
				<path style="fill:#FFFFFF;" d="M1434.597,2985.573h1165.343c1.494-3.997,2.667-8.158,3.458-12.458H1395.929
					c5.014,27.235,24.833,49.119,50.451,56.354c-9.344-7.409-16.857-17.164-21.662-28.42
					C1421.608,2993.763,1426.887,2985.573,1434.597,2985.573z"/>
			</g>
			<g>
				<path style="fill:#3AAAFF;" d="M2429.021,3047.68h-858.042c-45.794,0-84.266-32.39-89.327-75.204l-72.634-614.488
					c-5.92-50.086,35.756-93.892,89.327-93.892h1003.31c53.571,0,95.247,43.806,89.327,93.892l-72.634,614.488
					C2513.286,3015.291,2474.815,3047.68,2429.021,3047.68z"/>
			</g>
			<g style="opacity:0.6;">
				<path style="fill:#FFFFFF;" d="M2059.954,2722.676c0.171-0.07,0.343-0.14,0.513-0.211c5.285-2.205,10.202,3.545,7.208,8.426
					c-8.594,14.008-21.625,25.494-38.165,32.101c-37.377,14.931-80.767-1.053-99.442-36.707
					c-21.543-41.131-3.465-91.198,38.359-109.49c15.817-6.918,32.669-8.26,48.355-4.883c5.172,1.114,5.919,8.178,1.069,10.291
					l-0.164,0.071c-28.867,12.626-41.272,47.246-26.206,75.583C2004.445,2722.239,2034.365,2733.057,2059.954,2722.676z"/>
			</g>
			<g>
				<g>
					<path style="fill:#371A45;" d="M2443.077,2423.642c-0.292-8.029-0.45-16.165-3.206-23.955c-0.822-0.768-1.59-1.563-2.411-2.332
						c-2.412-0.477-4.796-1.219-7.261-1.458c-17.383-1.802-34.608-0.954-51.62,3.127c-22.18,5.326-41.762,15.37-57.344,32.329
						c-5.644,6.121-10.626,12.826-15.767,19.371c-1.378,1.775-2.517,2.597-4.929,1.908c-5.671-1.617-11.554-1.829-17.41-1.246
						c-15.688,1.643-28.831,8.771-40.57,18.867c-12.72,10.971-22.259,24.512-30.898,38.768c-3.683,6.042-1.033,11.766,5.989,13.011
						c4.425,0.742,8.851,1.457,13.276,2.199c10.6,1.749,21.173,3.471,31.746,5.22c0.026,0.318,0.08,0.477,0.053,0.636
						c-0.053,0.212-0.106,0.45-0.212,0.662c-3.392,6.042-1.616,10.891,3.524,14.919c0.557,0.45,1.06,1.007,1.563,1.51
						c2.782,2.703,5.618,5.432,8.559,8.241c-2.968,3.1-5.936,5.803-8.453,8.904c-1.272,1.563-2.279,3.71-2.544,5.724
						c-0.477,3.259,1.616,6.201,4.637,7.42c3.206,1.325,6.227,0.795,8.665-1.59c3.1-2.994,6.015-6.174,9.142-9.407
						c4.001,3.896,7.791,7.579,11.58,11.209c4.346,4.134,6.969,4.558,12.375,2.146c0.98-0.477,1.961-0.848,3.127-1.325
						c0.265,1.192,0.503,2.146,0.689,3.047c2.915,14.469,5.777,28.963,8.771,43.379c1.404,6.837,7.34,9.275,13.117,5.379
						c5.22-3.498,10.414-7.155,15.475-10.971c11.66-8.824,21.941-19.026,29.467-31.666c9.407-15.899,13.409-32.673,7.605-50.905
						c-0.239-0.716,0.185-2.067,0.768-2.544c5.114-4.505,10.414-8.798,15.528-13.329c11.554-10.282,20.219-22.683,26.314-36.86
						C2440.719,2464.768,2443.846,2444.523,2443.077,2423.642z M2268.926,2514.401c-12.243-2.04-24.936-4.16-37.973-6.333
						c10.785-15.582,22.577-29.546,40.119-37.337c7.579-3.365,16.747-4.558,22.471-3.18
						C2285.408,2483.079,2277.247,2498.607,2268.926,2514.401z M2376.114,2559.582c-1.537,9.911-6.042,18.47-11.977,26.393
						c-7.394,9.752-16.536,17.569-26.579,24.962c-2.677-13.303-5.326-26.314-7.923-39.06c15.529-8.904,30.712-17.595,45.976-26.34
						C2376.909,2549.91,2376.856,2554.759,2376.114,2559.582z M2423.495,2460.661c-3.418,13.329-8.665,25.784-17.171,36.728
						c-6.572,8.4-14.389,15.529-22.763,22.074c-22.71,17.754-47.857,31.428-73.826,43.697c-1.272,0.583-2.094,0.636-3.154-0.451
						c-2.305-2.411-4.823-4.69-7.234-7.049c-0.159-0.133-0.239-0.371-0.503-0.822c0.609-0.662,1.272-1.325,1.934-2.014
						c13.727-14.256,27.532-28.486,41.259-42.769c3.975-4.081,3.286-9.964-1.378-12.719c-3.259-1.935-7.075-1.325-10.043,1.696
						c-8.268,8.533-16.509,17.065-24.75,25.625c-6.148,6.36-12.243,12.693-18.629,19.318c-2.968-2.862-5.803-5.459-8.427-8.241
						c-0.451-0.503-0.292-1.961,0.106-2.729c6.413-13.594,12.746-27.241,19.53-40.676c6.704-13.329,14.707-25.916,23.823-37.734
						c8.533-11.156,18.072-21.305,30.394-28.354c7.897-4.531,16.218-8.056,25.015-10.361c0.795-0.239,2.094,0.397,2.782,1.06
						c10.865,10.388,21.623,20.802,32.408,31.242c3.233,3.1,6.439,6.28,9.752,9.328
						C2423.601,2458.435,2423.839,2459.309,2423.495,2460.661z M2426.41,2443.41c-10.759-10.414-21.252-20.537-31.772-30.712
						c-0.027-0.265,0-0.583,0-0.875c10.414-0.318,20.854-0.609,31.401-0.927C2427.522,2422.078,2427.417,2432.545,2426.41,2443.41z"
						/>
				</g>
				<g>
					<path style="fill:#FFFFFF;" d="M2422.62,2457.508c-3.313-3.047-6.519-6.227-9.752-9.328
						c-10.785-10.441-21.544-20.855-32.408-31.242c-0.689-0.663-1.987-1.298-2.782-1.06c-8.798,2.305-17.118,5.83-25.015,10.361
						c-12.322,7.049-21.862,17.198-30.394,28.354c-9.116,11.818-17.118,24.405-23.823,37.734
						c-6.784,13.435-13.117,27.082-19.53,40.676c-0.397,0.769-0.557,2.226-0.106,2.729c2.623,2.782,5.459,5.379,8.427,8.241
						c6.386-6.625,12.481-12.958,18.629-19.318c8.241-8.559,16.482-17.092,24.75-25.625c2.968-3.021,6.784-3.631,10.043-1.696
						c4.664,2.756,5.353,8.639,1.378,12.719c-13.727,14.283-27.532,28.513-41.259,42.769c-0.663,0.689-1.325,1.352-1.934,2.014
						c0.265,0.45,0.344,0.689,0.503,0.822c2.411,2.358,4.929,4.637,7.234,7.049c1.06,1.086,1.882,1.034,3.154,0.451
						c25.969-12.269,51.116-25.943,73.826-43.697c8.374-6.545,16.191-13.673,22.763-22.074
						c8.506-10.944,13.753-23.398,17.171-36.728C2423.839,2459.309,2423.601,2458.435,2422.62,2457.508z M2398.082,2479.581
						c-10.52,10.732-27.638,11.076-38.318,0.715c-10.732-10.334-10.997-27.453-0.609-38.291
						c10.202-10.626,27.347-10.865,38.105-0.53C2407.913,2451.757,2408.311,2469.114,2398.082,2479.581z"/>
				</g>
				<g>
					<path style="fill:#DB2C2C;" d="M2426.408,2443.402c-10.761-10.395-21.257-20.534-31.773-30.706
						c-0.014-0.276,0.004-0.572-0.003-0.874c10.417-0.304,20.86-0.602,31.418-0.927
						C2427.533,2422.066,2427.413,2432.542,2426.408,2443.402z"/>
				</g>
				<g>
					<path style="fill:#DB2C2C;" d="M2293.554,2467.555c-8.153,15.514-16.312,31.055-24.618,46.859
						c-12.264-2.06-24.953-4.17-37.983-6.336c10.794-15.602,22.578-29.569,40.125-37.344
						C2278.649,2467.356,2287.809,2466.17,2293.554,2467.555z"/>
				</g>
				<g>
					<path style="fill:#DB2C2C;" d="M2364.124,2585.978c-7.391,9.753-16.519,17.578-26.574,24.958
						c-2.681-13.293-5.322-26.304-7.917-39.058c15.531-8.898,30.71-17.583,45.991-26.351c1.296,4.385,1.225,9.225,0.499,14.067
						C2374.587,2569.503,2370.083,2578.056,2364.124,2585.978z"/>
				</g>
				<g>
					<path style="fill:#371A45;" d="M2397.26,2441.476c-10.759-10.335-27.903-10.096-38.105,0.53
						c-10.388,10.838-10.123,27.957,0.609,38.291c10.679,10.361,27.798,10.017,38.318-0.715
						C2408.311,2469.114,2407.913,2451.757,2397.26,2441.476z M2388.595,2470.916c-5.326,5.459-14.336,5.591-19.927,0.292
						c-5.777-5.459-5.83-14.76-0.133-20.484c5.326-5.406,14.521-5.459,19.954-0.106
						C2394.16,2456.183,2394.187,2465.192,2388.595,2470.916z"/>
				</g>
				<g>
					<path style="fill:#22A7F0;" d="M2388.59,2470.916c-5.326,5.458-14.336,5.59-19.936,0.284
						c-5.754-5.453-5.816-14.746-0.125-20.469c5.339-5.4,14.523-5.462,19.949-0.117
						C2394.15,2456.183,2394.198,2465.2,2388.59,2470.916z"/>
				</g>
			</g>
			<g style="opacity:0.35;">
				<path style="fill:#371A45;" d="M2476.875,2974.197l72.638-614.487c1.989-16.79-3.202-33.365-14.608-46.667
					c-12.915-15.067-32.033-23.885-52.755-24.599c0.012-0.045,0.029-0.097,0.041-0.14
					c-29.692,102.034-195.308,671.064-980.027,692.685c6.946,29.385,35.299,50.789,68.815,50.789h835.849
					C2442.88,3031.778,2472.995,3007.024,2476.875,2974.197z"/>
			</g>
			<g style="opacity:0.6;">
				<path style="fill:#FFFFFF;" d="M1522.829,2984.536l-72.633-614.491c-2.103-17.787,3.371-35.319,15.415-49.367
					c14.111-16.461,35.231-25.902,57.945-25.902h1003.311c7.807,0,15.396,1.191,22.606,3.324c-1.495-2.228-3.09-4.41-4.877-6.495
					c-14.109-16.457-35.227-25.898-57.939-25.898H1483.345c-22.714,0-43.834,9.441-57.945,25.902
					c-12.043,14.048-17.517,31.58-15.415,49.367l72.633,614.491c3.23,27.32,23.655,49.27,50.71,57.284
					C1527.768,3004.409,1524.05,2994.865,1522.829,2984.536z"/>
			</g>
			<g>
				<path style="fill:#371A45;" d="M2429.021,3062.225h-858.042c-53.228,0-97.839-37.852-103.772-88.042l-72.634-614.487
					c-3.23-27.319,5.269-53.931,23.931-74.927c19.89-22.383,48.992-35.22,79.841-35.22h1003.311
					c30.847,0,59.949,12.837,79.841,35.22c18.662,20.996,27.161,47.607,23.931,74.927l-72.634,614.487
					C2526.861,3024.373,2482.249,3062.225,2429.021,3062.225z M1498.345,2278.641c-22.544,0-43.721,9.277-58.096,25.454
					c-13.064,14.697-19.024,33.232-16.785,52.183l72.634,614.487c4.204,35.557,36.394,62.368,74.88,62.368h858.042
					c38.486,0,70.676-26.812,74.88-62.368l72.634-614.487c2.239-18.95-3.721-37.485-16.785-52.183
					c-14.377-16.177-35.552-25.454-58.096-25.454H1498.345z"/>
			</g>
			<g style="opacity:0.35;">
				<path style="fill:#371A45;" d="M1087.165,3165.246h1855.762c29.98,0,54.284-25.1,54.284-56.062v0
					c0-30.962-24.303-56.062-54.284-56.062h-747.213c-29.531,16.648-250.906,119.811-1164.778,93.063L1087.165,3165.246z"/>
			</g>
			<g style="opacity:0.15;">
				<path style="fill:#FFFFFF;" d="M1665.106,2660.311h-55.953c-20.081,0-36.36-16.279-36.36-36.36v-184.752
					c0-20.081,16.279-36.36,36.36-36.36h55.953c20.081,0,36.36,16.279,36.36,36.36v184.752
					C1701.466,2644.032,1685.187,2660.311,1665.106,2660.311z"/>
			</g>
			<g>
				<path style="fill:#371A45;" d="M2069.954,2712.676c0.171-0.07,0.343-0.14,0.513-0.211c5.285-2.205,10.202,3.545,7.208,8.426
					c-8.594,14.008-21.625,25.494-38.165,32.101c-37.377,14.931-80.767-1.053-99.442-36.707
					c-21.543-41.131-3.465-91.198,38.359-109.49c15.817-6.918,32.669-8.26,48.355-4.883c5.172,1.114,5.919,8.178,1.069,10.291
					l-0.164,0.071c-28.867,12.626-41.272,47.246-26.206,75.583C2014.445,2712.239,2044.365,2723.057,2069.954,2712.676z"/>
			</g>
			<g>
				<g>
					<g>
						<path style="fill:#F92323;" d="M2859.764,1553.406c-3.882,0-7.722-1.504-10.61-4.395c-4.822-4.819-5.786-12.283-2.349-18.169
							l42.549-72.876c9.751-16.702,7.688-37.466-5.134-51.67c-42.454-47.026-66.106-107.803-66.599-171.135
							c-1.096-141.033,112.664-257.978,253.591-260.696c1.707-0.032,3.396-0.049,5.098-0.049c69.871,0,135.347,27.429,184.37,77.234
							c49.011,49.795,75.396,115.725,74.287,185.649c-2.222,140.327-118.276,254.504-258.684,254.504
							c-0.007,0-2.231-0.01-2.231-0.01c-21.968-0.188-43.799-3.154-64.883-8.813c-3.513-0.942-7.146-1.421-10.798-1.421
							c-7.52,0-14.961,2.024-21.519,5.852l-109.529,63.948C2864.964,1552.738,2862.356,1553.406,2859.764,1553.406z"/>
					</g>
					<g>
						<g>
							<path style="fill:#371A45;" d="M3076.307,989.417c135.898,0,245.823,111.252,243.662,247.647
								c-2.097,132.451-111.465,239.741-243.689,239.741c-0.698,0-1.401-0.005-2.1-0.01c-21.125-0.181-41.606-3.061-61.123-8.301
								c-4.834-1.296-9.771-1.934-14.688-1.934c-10.129,0-20.181,2.7-29.082,7.898l-109.529,63.948l42.549-72.876
								c12.939-22.163,10.244-50.234-6.956-69.285c-38.584-42.742-62.249-99.197-62.732-161.201
								c-1.033-132.764,106.135-243.022,238.879-245.581C3073.108,989.432,3074.705,989.417,3076.307,989.417 M3076.307,959.417
								c-1.794,0-3.582,0.017-5.383,0.051c-149.104,2.873-269.463,126.601-268.303,275.811
								c0.522,67.009,25.547,131.313,70.464,181.069c8.428,9.333,9.758,23.02,3.315,34.055l-42.549,72.876
								c-6.873,11.772-4.944,26.702,4.695,36.34c5.781,5.779,13.462,8.787,21.223,8.787c5.183,0,10.403-1.34,15.117-4.092
								l109.529-63.948c4.265-2.49,9.089-3.806,13.955-3.806c2.339,0,4.663,0.305,6.909,0.908
								c22.31,5.989,45.405,9.126,68.645,9.326l2.356,0.01c148.557,0,271.333-120.794,273.684-269.265
								c1.172-73.977-26.741-143.73-78.596-196.411C3219.505,988.436,3150.23,959.417,3076.307,959.417L3076.307,959.417z"/>
						</g>
					</g>
				</g>
				<g style="opacity:0.2;">
					<path style="fill:#102770;" d="M3319.69,1221.768c-0.123-2.675-0.286-5.339-0.494-7.991c-0.107-1.359-0.216-2.717-0.345-4.07
						c-0.256-2.685-0.57-5.352-0.912-8.01c-0.149-1.151-0.268-2.31-0.433-3.456c-0.506-3.533-1.094-7.04-1.75-10.523
						c-0.287-1.517-0.624-3.017-0.938-4.523c-0.43-2.063-0.872-4.122-1.354-6.166c-0.426-1.804-0.876-3.598-1.342-5.385
						c-0.434-1.668-0.894-3.325-1.362-4.979c-0.551-1.942-1.096-3.886-1.693-5.808c-0.358-1.153-0.756-2.289-1.13-3.435
						c-1.464-4.473-3.041-8.894-4.754-13.25c-0.243-0.619-0.47-1.245-0.718-1.862c-0.971-2.413-1.995-4.8-3.041-7.174
						c-0.316-0.718-0.633-1.435-0.956-2.15c-1.121-2.478-2.267-4.941-3.467-7.374c-0.094-0.189-0.192-0.375-0.286-0.564
						c-5.479-11.035-11.76-21.602-18.779-31.615c11.957,29.439,18.36,61.726,17.823,95.58
						c-1.802,113.766-82.769,208.907-189.358,233.504c-113.011,25.026-178.786,3.89-218.808-35.582
						c-0.2-0.228-16.246-38.513-16.45-38.739c-6.693-7.414-12.904-15.266-18.655-23.462c0.001,0.004,0.004,0.008,0.006,0.013
						c0.911,2.241,1.871,4.456,2.847,6.662c-0.019-0.021-0.033-0.04-0.052-0.061c10.551,23.886,24.799,45.774,42.064,64.899
						c17.198,19.051,19.895,47.121,6.955,69.286l-42.548,72.875l109.527-63.947c13.223-7.72,28.984-9.935,43.771-5.965
						c19.516,5.239,39.996,8.12,61.123,8.302c3.829,0.033,7.635-0.047,11.425-0.193c3.522-0.135,7.017-0.376,10.501-0.662
						c0.524-0.043,1.055-0.061,1.578-0.107c3.196-0.283,6.365-0.665,9.525-1.072c0.798-0.103,1.605-0.175,2.401-0.286
						c2.971-0.412,5.915-0.918,8.853-1.439c0.966-0.171,1.942-0.312,2.904-0.495c2.8-0.531,5.569-1.148,8.335-1.775
						c1.078-0.244,2.165-0.461,3.237-0.72c2.658-0.641,5.285-1.361,7.91-2.089c1.153-0.32,2.316-0.616,3.463-0.953
						c2.536-0.745,5.042-1.561,7.544-2.385c1.204-0.397,2.415-0.773,3.611-1.188c2.424-0.841,4.818-1.748,7.208-2.663
						c1.241-0.475,2.49-0.935,3.721-1.431c2.318-0.932,4.606-1.923,6.889-2.923c1.267-0.555,2.541-1.1,3.797-1.676
						c2.213-1.015,4.397-2.084,6.575-3.163c1.287-0.638,2.579-1.269,3.854-1.929c2.115-1.095,4.202-2.237,6.281-3.392
						c1.292-0.718,2.586-1.432,3.865-2.173c2.02-1.17,4.014-2.382,5.998-3.608c1.293-0.8,2.586-1.599,3.864-2.422
						c1.923-1.239,3.82-2.513,5.706-3.804c1.291-0.883,2.578-1.77,3.851-2.677c1.828-1.303,3.633-2.637,5.424-3.988
						c1.278-0.964,2.549-1.935,3.806-2.923c1.735-1.363,3.448-2.752,5.145-4.16c1.262-1.047,2.515-2.105,3.756-3.177
						c1.64-1.417,3.26-2.855,4.862-4.314c1.238-1.128,2.464-2.269,3.678-3.422c1.55-1.47,3.082-2.958,4.594-4.468
						c1.208-1.207,2.399-2.43,3.582-3.662c1.456-1.516,2.897-3.046,4.315-4.599c1.175-1.288,2.33-2.594,3.477-3.907
						c1.365-1.561,2.719-3.133,4.044-4.728c1.134-1.365,2.243-2.75,3.348-4.14c1.271-1.599,2.534-3.205,3.766-4.836
						c1.092-1.447,2.156-2.916,3.217-4.388c1.178-1.634,2.351-3.271,3.49-4.934c1.042-1.523,2.051-3.071,3.06-4.619
						c1.084-1.663,2.167-3.326,3.21-5.017c0.99-1.603,1.941-3.233,2.895-4.86c0.99-1.69,1.984-3.378,2.935-5.093
						c0.931-1.68,1.818-3.387,2.709-5.091c0.895-1.71,1.798-3.416,2.654-5.149c0.867-1.758,1.685-3.543,2.511-5.324
						c0.802-1.73,1.617-3.453,2.379-5.204c0.797-1.83,1.538-3.69,2.291-5.543c0.709-1.746,1.435-3.483,2.105-5.248
						c0.722-1.904,1.382-3.838,2.057-5.764c0.616-1.757,1.254-3.505,1.83-5.28c0.643-1.981,1.218-3.992,1.811-5.995
						c0.521-1.759,1.069-3.507,1.551-5.282c0.562-2.073,1.049-4.175,1.557-6.269c0.423-1.742,0.878-3.471,1.263-5.227
						c0.479-2.184,0.874-4.398,1.293-6.603c0.323-1.7,0.686-3.388,0.972-5.1c0.391-2.33,0.69-4.69,1.014-7.043
						c0.223-1.62,0.491-3.226,0.681-4.856c0.308-2.639,0.515-5.308,0.737-7.972c0.114-1.367,0.279-2.72,0.37-4.094
						c0.268-4.052,0.44-8.129,0.505-12.231c0.062-3.904,0.004-7.782-0.116-11.643
						C3319.814,1224.198,3319.746,1222.984,3319.69,1221.768z"/>
				</g>
				<g style="opacity:0.5;">
					<g>
						<path style="fill:#FFFFFF;" d="M3191.169,1162.219c-26.734-26.737-71.39-25.992-101.755,0.845
							c-13.617-12.034-30.548-19.252-48.214-20.459c-20.455-1.389-39.494,5.569-53.546,19.617
							c-29.115,29.115-29.115,76.488-0.004,105.601l82.153,82.155c5.239,5.236,12.201,8.12,19.606,8.12
							c7.41,0,14.372-2.886,19.606-8.122l82.153-82.151C3220.284,1238.709,3220.284,1191.334,3191.169,1162.219z"/>
					</g>
				</g>
				<g style="opacity:0.5;">
					<g>
						<path style="fill:#FFFFFF;" d="M2845.725,1252.518c-1.033-132.763,106.136-243.024,238.878-245.581
							c77.64-1.496,147.2,33.328,192.841,88.625c-44.746-65.305-120.428-107.746-205.946-106.099
							c-132.742,2.557-239.912,112.818-238.879,245.581c0.451,57.955,21.165,111.056,55.375,152.648
							C2861.669,1349.134,2846.115,1302.643,2845.725,1252.518z"/>
					</g>
				</g>
				<g>
					<path style="fill:#FFFFFF;" d="M2982.271,1156.838L2982.271,1156.838c24.897-24.897,65.263-20.436,90.16,4.461l3.875,3.875
						l3.875-3.875c24.897-24.897,65.263-29.358,90.16-4.461v0c24.897,24.897,24.897,65.263,0,90.16l-3.875,3.875l-78.275,78.276
						c-6.564,6.564-17.205,6.564-23.769,0l-78.276-78.276l-3.875-3.875C2957.375,1222.101,2957.375,1181.735,2982.271,1156.838z"/>
					<path style="fill:#371A45;" d="M3076.307,1344.056c-6.865,0-13.728-2.61-18.955-7.834l-82.151-82.153
						c-13.931-13.931-21.602-32.451-21.602-52.151s7.671-38.22,21.602-52.148l0,0l0,0c26.57-26.567,71.077-25.632,101.106,1.426
						c30.027-27.058,74.541-27.998,101.106-1.426c28.755,28.755,28.755,75.542,0,104.299l-82.151,82.151
						C3090.037,1341.444,3083.169,1344.056,3076.307,1344.056z M3023.257,1150.328c-12.644,0-24.81,4.478-33.916,13.582l0,0
						c-10.151,10.154-15.742,23.65-15.742,38.008s5.591,27.856,15.742,38.01l82.151,82.151c2.656,2.651,6.973,2.654,9.629-0.002
						l82.153-82.151c20.955-20.957,20.955-55.059-0.002-76.016c-19.736-19.729-53.835-17.727-76.021,4.46l-3.875,3.875
						c-3.901,3.906-10.239,3.906-14.141,0l-3.875-3.875C3053.414,1156.424,3038.011,1150.328,3023.257,1150.328z M2982.271,1156.839
						h0.049H2982.271z"/>
				</g>
			</g>
		</g>
		<g style="opacity:0.3;">
			<path style="fill:#371A45;" d="M3300,3209.765c0,50.668-585.401,91.775-1307.5,91.775S685,3260.434,685,3209.765
				c0-14.227,46.29-27.754,128.943-39.765h2357.115C3253.71,3182.011,3300,3195.538,3300,3209.765z"/>
		</g>
		<g>
			<g>
				<path style="fill:#FFF2BD;" d="M1232.019,2212.18l-35.174,5.431c-7.047,1.088-12.577,6.618-13.665,13.665l-5.431,35.174
					l-5.431-35.174c-1.088-7.047-6.618-12.577-13.665-13.665l-35.174-5.431l35.174-5.431c7.047-1.088,12.577-6.618,13.665-13.665
					l5.431-35.173l5.431,35.173c1.088,7.047,6.618,12.577,13.665,13.665L1232.019,2212.18z"/>
			</g>
			<g>
				<path style="fill:#FFF2BD;" d="M1092.406,2444.081l-33.002,5.096c-6.612,1.021-11.8,6.209-12.821,12.821l-5.096,33.002
					l-5.096-33.002c-1.021-6.612-6.209-11.8-12.821-12.821l-33.002-5.096l33.002-5.096c6.612-1.021,11.8-6.209,12.821-12.821
					l5.096-33.001l5.096,33.001c1.021,6.612,6.209,11.8,12.821,12.821L1092.406,2444.081z"/>
			</g>
			<g>
				<path style="fill:#FFF2BD;" d="M980.872,2041.644l-24.612,3.8c-4.931,0.761-8.8,4.63-9.562,9.562l-3.8,24.612l-3.8-24.612
					c-0.761-4.931-4.63-8.8-9.562-9.562l-24.612-3.8l24.612-3.8c4.931-0.761,8.8-4.63,9.562-9.561l3.8-24.611l3.8,24.611
					c0.761,4.931,4.631,8.8,9.562,9.561L980.872,2041.644z"/>
			</g>
			<g>
				<path style="fill:#FFF2BD;" d="M3059.588,2120.861l36.136,5.58c7.24,1.118,12.921,6.799,14.039,14.039l5.58,36.136l5.58-36.136
					c1.118-7.24,6.799-12.921,14.039-14.039l36.136-5.58l-36.136-5.58c-7.24-1.118-12.921-6.799-14.039-14.039l-5.58-36.136
					l-5.58,36.136c-1.118,7.24-6.799,12.921-14.039,14.039L3059.588,2120.861z"/>
			</g>
			<g>
				<path style="fill:#FFF2BD;" d="M2842.204,2353.371l33.905,5.235c6.793,1.049,12.123,6.379,13.172,13.172l5.235,33.905
					l5.235-33.905c1.049-6.793,6.379-12.123,13.172-13.172l33.905-5.235l-33.905-5.235c-6.793-1.049-12.123-6.379-13.172-13.172
					l-5.235-33.904l-5.235,33.904c-1.049,6.793-6.379,12.123-13.172,13.172L2842.204,2353.371z"/>
			</g>
			<g>
				<path style="fill:#FFF2BD;" d="M2919.73,1924.012l25.285,3.904c5.066,0.782,9.041,4.757,9.823,9.823l3.904,25.285l3.904-25.285
					c0.782-5.066,4.757-9.041,9.823-9.823l25.285-3.904l-25.285-3.904c-5.066-0.782-9.041-4.757-9.823-9.823l-3.904-25.284
					l-3.904,25.284c-0.782,5.066-4.757,9.041-9.823,9.823L2919.73,1924.012z"/>
			</g>
			<g>
				<path style="fill:#FFF2BD;" d="M1366.226,1234.515l-27.555,4.255c-5.521,0.852-9.852,5.184-10.705,10.705l-4.255,27.555
					l-4.255-27.555c-0.852-5.521-5.184-9.853-10.705-10.705l-27.555-4.255l27.555-4.255c5.521-0.852,9.853-5.184,10.705-10.705
					l4.255-27.554l4.255,27.554c0.852,5.521,5.184,9.852,10.705,10.705L1366.226,1234.515z"/>
			</g>
			<g>
				<path style="fill:#FFF2BD;" d="M1169.925,1456.256l-28.599,4.416c-5.73,0.885-10.226,5.381-11.111,11.111l-4.416,28.599
					l-4.416-28.599c-0.885-5.73-5.381-10.226-11.111-11.111l-28.599-4.416l28.6-4.416c5.73-0.885,10.226-5.381,11.111-11.111
					l4.416-28.599l4.416,28.599c0.885,5.73,5.381,10.226,11.111,11.111L1169.925,1456.256z"/>
			</g>
			<g>
				<path style="fill:#FFF2BD;" d="M2461.672,1064.515l27.555,4.255c5.521,0.852,9.852,5.184,10.705,10.705l4.255,27.555
					l4.255-27.555c0.853-5.521,5.184-9.853,10.705-10.705l27.555-4.255l-27.555-4.255c-5.521-0.852-9.853-5.184-10.705-10.705
					l-4.255-27.554l-4.255,27.554c-0.853,5.521-5.184,9.852-10.705,10.705L2461.672,1064.515z"/>
			</g>
		</g>
	</g>
</g>
</svg>
